<!DOCTYPE svg PUBLIC
    "-//W3C//DTD SVG 1.1//EN"
    "http://www.w3.org/Graphics/SVG/1.1/DTD/svg11.dtd">
<svg width="512" height="214"
    xmlns="http://www.w3.org/2000/svg"
    xmlns:xlink="http://www.w3.org/1999/xlink">
    <defs>
        <rect id="urect"
            x = "-1" y = "-1"
            width = "2" height = "2"></rect>
        <circle id="ucirc"
            cx = "0" cy = "0" r = "1"></circle>
    </defs>

    <g id="bg"
        transform="translate(0,0)scale(512,214)">
        <use xlink:href="#urect"
            transform="translate(0,0)scale(1,1)"
            fill="#E0F8F7" />     
    </g>

    <g id="bg_amb"
        transform="translate(0,0)scale(50,50)">


        <use xlink:href="#ucirc"
            id = "field_1"
            transform="translate(2,5)scale(4,2)"
            fill="#088A4B" />     
        
        <use xlink:href="#ucirc"
            id = "field_2"
            transform="translate(5,5)scale(4,2)"
            fill="#088A4B" />  

        <use xlink:href="#ucirc"
            id = "field_3"
            transform="translate(7.5,5.2)scale(4,2)"
            fill="#088A4B" /> 

        <use xlink:href="#ucirc"
                id= "sun"
                transform="translate(5,0.7)scale(0.7,0.7)"
                fill="#F3F781" />  

        <path id="cloud_1"
            transform="translate(0.5, 0.5)scale(2,1.5)"
            fill="white" stroke = "black"
            stroke-width = "0.005"
            d=" M 0.6 0.2
                Q 0.9 0.1 1 0.3
                Q 1 0.45 0.75 0.45
                Q 0.55 0.6 0.4 0.55
                Q 0.2 0.55 0.2 0.4
                Q 0.3 0.05 0.6 0.2" />

            <path id="cloud_2"
            transform="translate(2, 0.5)scale(3,2)"
            fill="white" stroke = "black"
            stroke-width = "0.005"
            d=" M 0.6 0.2
                Q 0.9 0.1 1 0.3
                Q 1 0.45 0.75 0.45
                Q 0.55 0.6 0.4 0.55
                Q 0.2 0.55 0.2 0.4
                Q 0.3 0.05 0.6 0.2" />

            <path id="cloud_3"
            transform="translate(3.5, 0.2)scale(4,2)"
            fill="white" stroke = "black"
            stroke-width = "0.005"
            d=" M 0.6 0.2
                Q 0.9 0.1 1 0.3
                Q 1 0.45 0.75 0.45
                Q 0.55 0.6 0.4 0.55
                Q 0.2 0.55 0.2 0.4
                Q 0.3 0.05 0.6 0.2" />
            


    </g>

    <g id="bus_stop"
        transform="translate(410,160)scale(2,30)">

        

 
        <use xlink:href="#urect"
            id= "supp_1"
            transform="translate(5,0)scale(1,0.9)"
            fill="black" />


        <use xlink:href="#urect"
            id= "supp_2"
            transform="translate(-25,0)scale(1,0.9)"
            fill="black" />

        <path id= "roof"
            transform="translate(-5, -1.4)scale(20,1)"
            fill="#424242"
            d=" M 0.3 0.3
                L 0.7 0.6
                L -1.2 0.6
                L -1.5 0.3" />

        <use xlink:href="#urect"
            id= "supp_3"
            transform="translate(0,0)scale(1,1)"
            fill="black" />
        
       
        <use xlink:href="#urect"
            id= "supp_4"
            transform="translate(-30,0)scale(1,1)"
            fill="black" />

        
    </g>

    <g id="ground"
        transform="translate(0,200)scale(512,15)">

        <use xlink:href="#urect"
            id= "tar"
            transform="translate(0,0)scale(1,1)"
            fill="#424242" />

        <use xlink:href="#urect"
            id = "tar_streak_01"
            transform="translate(0,0)scale(0.1,0.1)"
            fill="white" />

        <use xlink:href="#urect"
            id = "tar_streak_02"
            transform="translate(0.4,0)scale(0.1,0.1)"
            fill="white" />
        
        <use xlink:href="#urect"
            id = "tar_streak_03"
            transform="translate(0.8,0)scale(0.1,0.1)"
            fill="white" />
       
    </g>

    

    <g id="stop_sinal"
        transform="translate(450,160)scale(1.5,25)">

        <use xlink:href="#urect"
            id= "post"
            transform="translate(0,0)scale(1,1)"
            fill="bck" />

        <use xlink:href="#urect"
            id= "base_1"
            fill = "grey" stroke="black"
            stroke-width="0.05"
            transform="translate(0,1)scale(6,0.05)" />

        <use xlink:href="#urect"
            id= "base_2"
            fill = "grey" stroke="black"
            stroke-width="0.05"
            transform="translate(0,0.95)scale(4,0.05)" />

        <use xlink:href="#ucirc"
            id= "bus_sinal_1"
            fill = "#2E9AFE" stroke="blue"
            stroke-width="0.1"
            transform="translate(0,-1)scale(5,0.5)" />
        
        <path id="s_bus_shape"
            transform="translate(0, -1.25)scale(3,0.5)"
            fill="white"
            d=" M -1 0
                L 1 0
                L 1 1
                L 0.55 1
                L 0.55 0.8
                L -0.55 0.8
                L -0.55 1
                L -1 1" />

        <path id="s_bus_inner_shape"
            transform="translate(0, -1.25)scale(3,0.5)"
            fill="#2E9AFE"
            d=" M 0.55 0.2
                L 0.55 0.5
                L -0.55 0.5
                L -0.55 0.2
                
                M -0.6 0.6
                L -0.3 0.6
                L -0.3 0.7
                L -0.6 0.7
                
                M 0.6 0.6
                L 0.3 0.6
                L 0.3 0.7
                L 0.6 0.7" />

        <use xlink:href="#urect"
            id= "bus_sinal_2"
            fill = "#298A08" stroke="#0B610B"
            stroke-width="0.1"
            transform="translate(0,0.1)scale(2.5,0.4)" />
        
        <use xlink:href="#urect"
            id= "s2_streak_1"
            fill = "#A9F5A9"
            stroke-width="0.1"
            transform="translate(0,-0.05)scale(1.3,0.03)" />

        <use xlink:href="#urect"
            id= "s2_streak_2"
            fill = "#A9F5A9"
            stroke-width="0.1"
            transform="translate(0,0.12)scale(1.3,0.03)" />

        <use xlink:href="#urect"
            id= "s2_streak_3"
            fill = "#A9F5A9"
            stroke-width="0.1"
            transform="translate(0,0.3)scale(1.3,0.03)" />
        
       
    </g>

    <g id="bus"
        transform="translate(100,150)scale(70,70)">

        <use xlink:href="#urect"
            id = "t_base"
            transform="translate(-2.15,0.4)scale(0.95,0.05)"
            fill="black" />

        <path id="t_cabin_box"
            transform="translate(-1, -0.17)scale(2,0.75)"
            fill="darkorange" stroke="black" 
            stroke-width ="0.02"
            d=" M 0.95 0.2
                L 0.95 1
                L -1 1
                L -1 -0.53
                L 0.75 -0.53
                L 0.8 0.2 " />

        <path id="t_cabin_glass"
            fill = "skyblue" stroke="black"
            stroke-width="0.05"
            transform="translate(0.5,-0.21)scale(0.4,0.35)"
            d=" M 0 0.6
                L 1 0.6
                Q 1 -1 0 -1 
                L 0 0.6 " />

        <use id="t_door_1"
            fill = "skyblue" stroke="black"
            stroke-width="0.1"
            transform="translate(0.2, 0.1)scale(0.12,0.4)"
            xlink:href = "#urect" />

        <use id="t_door_2"
            fill = "skyblue" stroke="black"
            stroke-width="0.1"
            transform="translate(-0.05, 0.1)scale(0.12,0.4)"
            xlink:href = "#urect" />

        <use id="t_window_1"
            fill = "skyblue" stroke="black"
            stroke-width="0.1"
            transform="translate(-2.5, -0.15)scale(0.3,0.2)"
            xlink:href = "#urect" />

        <use id="t_window_2"
            fill = "skyblue" stroke="black"
            stroke-width="0.1"
            transform="translate(-0.9, -0.15)scale(0.3,0.2)"
            xlink:href = "#urect" />

        <use id="t_window_3"
            fill = "skyblue" stroke="black"
            stroke-width="0.1"
            transform="translate(-1.7, -0.15)scale(0.3,0.2)"
            xlink:href = "#urect" />

        <use id="t_weel_1"
             fill="black"
             transform="translate(0.6, 0.5)scale(0.2,0.2)"
             xlink:href="#ucirc" />
            
        <use id="t_inner_weel_1"
             fill="white"
             transform="translate(0.6, 0.5)scale(0.05,0.05)"
             xlink:href="#ucirc" />

        <use id="t_weel_2"
             fill="black"
             transform="translate(-0.5, 0.5)scale(0.2,0.2)"
             xlink:href="#ucirc" />

        <use id="t_inner_weel_2"
             fill="white"
             transform="translate(-0.5, 0.5)scale(0.05,0.05)"
             xlink:href="#ucirc" />

        <use id="t_weel_3"
             fill="black"
             transform="translate(-1, 0.5)scale(0.2,0.2)"
             xlink:href="#ucirc" />

        <use id="t_inner_weel_3"
             fill="white"
             transform="translate(-1, 0.5)scale(0.05,0.05)"
             xlink:href="#ucirc" />

         <use id="t_weel_4"
             fill="black"
             transform="translate(-2, 0.5)scale(0.2,0.2)"
             xlink:href="#ucirc" />
        
        <use id="t_inner_weel_4"
             fill="white"
             transform="translate(-2, 0.5)scale(0.05,0.05)"
             xlink:href="#ucirc" />

        <use id="t_weel_5"
             fill="black"
             transform="translate(-2.5, 0.5)scale(0.2,0.2)"
             xlink:href="#ucirc" />

        <use id="t_inner_weel_5"
             fill="white"
             transform="translate(-2.5, 0.5)scale(0.05,0.05)"
             xlink:href="#ucirc" />

    </g>

    <g id="bus_smoke"
        transform="translate(200,125)scale(70,70)">

        <path id="s_cloud_1"
            transform="translate(-2.5, 2.3)scale(0.5, 0.75)"
            fill="#A4A4A4" stroke = "black"
            stroke-width = "0.005"
            d=" M 0.6 0.2
                Q 0.9 0.1 1 0.3
                Q 1 0.45 0.75 0.45
                Q 0.55 0.6 0.4 0.55
                Q 0.2 0.55 0.2 0.4
                Q 0.3 0.05 0.6 0.2" />   
    </g>

</svg>